<mxfile host="app.diagrams.net" modified="2021-12-06T18:28:53.455Z" agent="5.0 (Windows NT 10.0; Win64; x64) AppleWebKit/537.36 (KHTML, like Gecko) Chrome/95.0.4638.69 Safari/537.36 Edg/95.0.1020.53" etag="SCbwatv35WJgir2tTnVl" version="15.9.1" type="github">
  <diagram id="C5RBs43oDa-KdzZeNtuy" name="Page-1">
    <mxGraphModel dx="1696" dy="1665" grid="1" gridSize="10" guides="1" tooltips="1" connect="1" arrows="1" fold="1" page="1" pageScale="1" pageWidth="827" pageHeight="1169" math="0" shadow="0">
      <root>
        <mxCell id="WIyWlLk6GJQsqaUBKTNV-0" />
        <mxCell id="WIyWlLk6GJQsqaUBKTNV-1" parent="WIyWlLk6GJQsqaUBKTNV-0" />
        <mxCell id="PGyNWTkUjuLlaOZVt65F-2" style="edgeStyle=orthogonalEdgeStyle;rounded=0;orthogonalLoop=1;jettySize=auto;html=1;entryX=1;entryY=0.5;entryDx=0;entryDy=0;entryPerimeter=0;" edge="1" parent="WIyWlLk6GJQsqaUBKTNV-1" source="WIyWlLk6GJQsqaUBKTNV-3" target="PGyNWTkUjuLlaOZVt65F-0">
          <mxGeometry relative="1" as="geometry" />
        </mxCell>
        <mxCell id="PGyNWTkUjuLlaOZVt65F-4" style="edgeStyle=orthogonalEdgeStyle;rounded=0;orthogonalLoop=1;jettySize=auto;html=1;entryX=1;entryY=0;entryDx=0;entryDy=52.5;entryPerimeter=0;" edge="1" parent="WIyWlLk6GJQsqaUBKTNV-1" source="WIyWlLk6GJQsqaUBKTNV-3" target="PGyNWTkUjuLlaOZVt65F-3">
          <mxGeometry relative="1" as="geometry" />
        </mxCell>
        <mxCell id="WIyWlLk6GJQsqaUBKTNV-3" value="&lt;b&gt;&amp;nbsp; &amp;nbsp; &amp;nbsp;InvoiceService&lt;/b&gt;" style="rounded=1;whiteSpace=wrap;html=1;fontSize=12;glass=0;strokeWidth=1;shadow=0;" parent="WIyWlLk6GJQsqaUBKTNV-1" vertex="1">
          <mxGeometry x="200" y="230" width="160" height="60" as="geometry" />
        </mxCell>
        <mxCell id="PGyNWTkUjuLlaOZVt65F-0" value="SmsWpk&lt;br&gt;db" style="shape=cylinder3;whiteSpace=wrap;html=1;boundedLbl=1;backgroundOutline=1;size=15;" vertex="1" parent="WIyWlLk6GJQsqaUBKTNV-1">
          <mxGeometry x="20" y="180" width="60" height="80" as="geometry" />
        </mxCell>
        <mxCell id="PGyNWTkUjuLlaOZVt65F-3" value="Payment&lt;br&gt;db" style="shape=cylinder3;whiteSpace=wrap;html=1;boundedLbl=1;backgroundOutline=1;size=15;" vertex="1" parent="WIyWlLk6GJQsqaUBKTNV-1">
          <mxGeometry x="20" y="300" width="60" height="80" as="geometry" />
        </mxCell>
        <mxCell id="PGyNWTkUjuLlaOZVt65F-5" value="&lt;h1&gt;InvoiceService&lt;/h1&gt;&lt;p&gt;- Get client report data from SmsWpk db (sms count, price, ..)&lt;/p&gt;&lt;p&gt;- Create invoice in the paymentdb&lt;/p&gt;&lt;p&gt;- Display the PDF invoice based on the predefined bank_info &amp;amp; invoice template&lt;/p&gt;" style="text;html=1;spacing=5;spacingTop=-20;whiteSpace=wrap;overflow=hidden;rounded=0;fillColor=#dae8fc;strokeColor=#6c8ebf;" vertex="1" parent="WIyWlLk6GJQsqaUBKTNV-1">
          <mxGeometry x="200" y="310" width="190" height="180" as="geometry" />
        </mxCell>
        <mxCell id="PGyNWTkUjuLlaOZVt65F-6" value="SELECT m.client_id, sum(m.nosms) AS messages, SUM(m.charge) amount FROM message_backup m WHERE m.client_id = &#39;{clientId}&#39;AND DATE_FORMAT(m.recd_time,&#39;%Y%m%d&#39;) BETWEEN &#39;" style="text;html=1;strokeColor=#b85450;fillColor=#f8cecc;align=center;verticalAlign=middle;whiteSpace=wrap;rounded=0;" vertex="1" parent="WIyWlLk6GJQsqaUBKTNV-1">
          <mxGeometry x="10" y="520" width="620" height="40" as="geometry" />
        </mxCell>
        <mxCell id="PGyNWTkUjuLlaOZVt65F-7" value="&lt;div&gt;INSERT INTO invoice (client_id, month, affiliate, amount, currency, sent_date, sent_staff_log, status, due_date, bank_info, sms_no) &quot; +&lt;/div&gt;&lt;div&gt;&amp;nbsp; &amp;nbsp; &amp;nbsp; &amp;nbsp; &amp;nbsp; &amp;nbsp; &amp;nbsp; &amp;nbsp; &amp;nbsp; &amp;nbsp; &quot;VALUES (@client_id, @Month, @Affiliate, @Amount, @Currency, @sent_date, @sent_staff_log, @Status, @due_date, @bank_info, @sms_no)&lt;/div&gt;" style="text;html=1;strokeColor=#b85450;fillColor=#f8cecc;align=center;verticalAlign=middle;whiteSpace=wrap;rounded=0;" vertex="1" parent="WIyWlLk6GJQsqaUBKTNV-1">
          <mxGeometry x="10" y="580" width="730" height="70" as="geometry" />
        </mxCell>
        <mxCell id="PGyNWTkUjuLlaOZVt65F-9" value="" style="verticalLabelPosition=bottom;html=1;verticalAlign=top;align=center;strokeColor=none;fillColor=#00BEF2;shape=mxgraph.azure.startup_task;pointerEvents=1;" vertex="1" parent="WIyWlLk6GJQsqaUBKTNV-1">
          <mxGeometry x="214" y="244.52" width="27.5" height="28.95" as="geometry" />
        </mxCell>
        <mxCell id="PGyNWTkUjuLlaOZVt65F-12" style="edgeStyle=orthogonalEdgeStyle;rounded=0;orthogonalLoop=1;jettySize=auto;html=1;entryX=0;entryY=0.5;entryDx=0;entryDy=0;entryPerimeter=0;" edge="1" parent="WIyWlLk6GJQsqaUBKTNV-1" source="PGyNWTkUjuLlaOZVt65F-10" target="PGyNWTkUjuLlaOZVt65F-3">
          <mxGeometry relative="1" as="geometry" />
        </mxCell>
        <mxCell id="PGyNWTkUjuLlaOZVt65F-10" value="&lt;b&gt;Admin Portal&lt;/b&gt;" style="rounded=1;whiteSpace=wrap;html=1;fontSize=12;glass=0;strokeWidth=1;shadow=0;" vertex="1" parent="WIyWlLk6GJQsqaUBKTNV-1">
          <mxGeometry x="200" y="60" width="160" height="60" as="geometry" />
        </mxCell>
        <mxCell id="PGyNWTkUjuLlaOZVt65F-13" value="" style="sketch=0;pointerEvents=1;shadow=0;dashed=0;html=1;strokeColor=none;fillColor=#505050;labelPosition=center;verticalLabelPosition=bottom;verticalAlign=top;outlineConnect=0;align=center;shape=mxgraph.office.devices.laptop;" vertex="1" parent="WIyWlLk6GJQsqaUBKTNV-1">
          <mxGeometry x="251" y="30" width="58" height="34" as="geometry" />
        </mxCell>
        <mxCell id="PGyNWTkUjuLlaOZVt65F-14" value="&lt;h1&gt;&lt;span&gt;AdminPortal&lt;/span&gt;&lt;/h1&gt;&lt;h1&gt;&lt;span style=&quot;font-size: 12px ; font-weight: normal&quot;&gt;- Postpaid invoice menu display the list of postpaid invoices&amp;nbsp;&lt;/span&gt;&lt;/h1&gt;&lt;h1&gt;&lt;span style=&quot;font-size: 12px ; font-weight: 400&quot;&gt;- The user can filter by client and by month&lt;/span&gt;&lt;/h1&gt;&lt;div&gt;&lt;span style=&quot;font-size: 12px ; font-weight: 400&quot;&gt;- the user can show the PDF and print or save it.&lt;/span&gt;&lt;/div&gt;&lt;div&gt;&lt;span style=&quot;font-size: 12px ; font-weight: 400&quot;&gt;&lt;br&gt;&lt;/span&gt;&lt;/div&gt;" style="text;html=1;spacing=5;spacingTop=-20;whiteSpace=wrap;overflow=hidden;rounded=0;fillColor=#dae8fc;strokeColor=#6c8ebf;" vertex="1" parent="WIyWlLk6GJQsqaUBKTNV-1">
          <mxGeometry x="380" y="-60" width="190" height="240" as="geometry" />
        </mxCell>
      </root>
    </mxGraphModel>
  </diagram>
</mxfile>
